<?xml version="1.0" encoding="UTF-8"?> <svg xmlns="http://www.w3.org/2000/svg" width="328.338" height="66.455" viewBox="0 0 328.338 66.455"><g transform="translate(-1005.584 -1071.621)"><g transform="translate(1005.584 1071.621)"><g transform="translate(0 53.735)"><path d="M-5.213-37.328a23.729,23.729,0,0,0,.03,3.188,13.812,13.812,0,0,0,3.462-.125A1.28,1.28,0,0,0-.568-35.573c.092-1.1-.314-1.61-1.539-1.735-.98-.1-1.979-.02-3.107-.02m.021,4.4v3.27H-2a2.162,2.162,0,0,0,.747-.132,1.522,1.522,0,0,0,1.043-1.7,1.407,1.407,0,0,0-1.3-1.421c-1.206-.056-2.417-.014-3.685-.014m-1.574-5.587c1.641,0,3.284-.027,4.922.025A2.582,2.582,0,0,1,.791-36.8,2.44,2.44,0,0,1-.531-33.759c0,.343.324.236.489.343A2.723,2.723,0,0,1,1.091-30.3a2.474,2.474,0,0,1-2.452,1.8c-1.8.039-3.6.009-5.405.008Z" transform="translate(6.767 38.519)" fill="#acadad"></path></g><g transform="translate(170.125 0) rotate(88.72)"><path d="M.181,8.145,0,8.115.181.007.37,0Q.274,4.072.181,8.145" transform="translate(0 0)" fill="#545c81"></path></g><g transform="translate(242.932 2.846)"><path d="M-29.469-92.223a2.37,2.37,0,0,0,1.06.111c3.406,0,6.812.011,10.218,0a22.076,22.076,0,0,0,2.3-.134,4.121,4.121,0,0,0,3.8-3.621c.3-2.274-.545-4.523-3.082-5.158a8.113,8.113,0,0,0-1.908-.2c-3.887-.018-7.775-.01-11.664-.007-.249,0-.521-.067-.731.181Zm0,17.416a1.8,1.8,0,0,0,.332.073c4.5,0,9,.045,13.494-.013a4.686,4.686,0,0,0,4.766-4.586A4.779,4.779,0,0,0-13.9-84.4a6.323,6.323,0,0,0-2.359-.38q-6.218.007-12.435.006a1.038,1.038,0,0,0-.776.136Zm19.8-14.068a1.578,1.578,0,0,0,.779.3,9.668,9.668,0,0,1,6.983,9.233,15.11,15.11,0,0,1-.312,3.824,10.215,10.215,0,0,1-6.337,7.131,14.282,14.282,0,0,1-5.635,1.1c-7.787.031-15.574.014-23.359.011a.957.957,0,0,1-.7-.129v-41.121c.249-.207.517-.122.762-.122q11.534-.007,23.069,0A12.038,12.038,0,0,1-6.4-105.865a9.158,9.158,0,0,1,3.324,6.4,9.8,9.8,0,0,1-1.7,6.835,9.669,9.669,0,0,1-4.149,3.344c-.255.109-.58.116-.748.412" transform="translate(38.25 108.661)" fill="#72b73a"></path></g><g transform="translate(76.514 11.396)"><path d="M-29.119-76.037h12a8.449,8.449,0,0,0-.583-3.543,4.381,4.381,0,0,0-3.243-2.736,7.921,7.921,0,0,0-3.909.114,6.079,6.079,0,0,0-4.26,6.165M-8.5-70.417H-29.34c.125,2.317.348,4.525,1.857,6.361a5.16,5.16,0,0,0,3.464,1.711,8.07,8.07,0,0,0,3.905-.258,4.757,4.757,0,0,0,3.354-4.071c.047-.345.1-.691.154-1.08h8.074A10.355,10.355,0,0,1-8.975-63.8c-1.048,3.7-3.67,5.891-7.182,7.043a20.557,20.557,0,0,1-12.99-.017,11.3,11.3,0,0,1-7.512-7.675,26.405,26.405,0,0,1-1.061-9.977,22.255,22.255,0,0,1,1.166-6.215,11.471,11.471,0,0,1,7.907-7.523,20.812,20.812,0,0,1,10.205-.414c4.652.952,7.576,3.844,8.96,8.331a29.772,29.772,0,0,1,.98,9.831" transform="translate(37.795 89.024)" fill="#1c3761"></path></g><g transform="translate(173.631 11.424)"><path d="M-79.747-56.817a14.719,14.719,0,0,0-.627-5.221,5.924,5.924,0,0,0-4.261-4.191,11.089,11.089,0,0,0-4.4-.214,6.034,6.034,0,0,0-3.884,1.929,7.28,7.28,0,0,0-1.55,3.166,23.8,23.8,0,0,0-.289,7.56,9.54,9.54,0,0,0,.856,3.236,5.654,5.654,0,0,0,3.462,3.135,10.857,10.857,0,0,0,4.389.368,6.065,6.065,0,0,0,5.7-4.542,15.338,15.338,0,0,0,.6-5.227m-23.762-.1a24.689,24.689,0,0,1,1.274-7.972,11.742,11.742,0,0,1,7.392-7.337,22.815,22.815,0,0,1,8.837-1.107,22.232,22.232,0,0,1,5.13.781,11.986,11.986,0,0,1,8.854,8.9,26.163,26.163,0,0,1-.053,13.966,11.938,11.938,0,0,1-9.171,8.81,24.8,24.8,0,0,1-11.747.116c-5.539-1.26-8.772-4.782-9.942-10.269a29.749,29.749,0,0,1-.575-5.887" transform="translate(103.508 73.373)" fill="#1c3761"></path></g><g transform="translate(295.986 11.717)"><path d="M-51.268,33.916a14.963,14.963,0,0,1-.758-4.735,8.57,8.57,0,0,0,6.191-1.693A9.587,9.587,0,0,0-42.8,16.42c-.454-1.128-.982-2.226-1.343-3.392a9.667,9.667,0,0,1-.37-5.812c-.3-.475-.722-.33-1.067-.252a21.76,21.76,0,0,0-11.2,5.828A9.783,9.783,0,0,0-57.9,25.563c.243.342.407.825,1.086.88a35.367,35.367,0,0,1,5.394-10.815c-2.22,5.8-3.516,11.728-2.842,18.036a7.449,7.449,0,0,1-2.124-.366,12.054,12.054,0,0,1-8.285-6.344,16.8,16.8,0,0,1-1.611-5.51,30.487,30.487,0,0,1,.16-9.1,16.538,16.538,0,0,1,1.468-4.555,11.754,11.754,0,0,1,7.924-6.223A24.745,24.745,0,0,1-44.7,1.4a12.134,12.134,0,0,1,9.765,9.635,27.194,27.194,0,0,1-.05,12.86c-1.332,5.4-4.9,8.468-10.263,9.6a23.947,23.947,0,0,1-6.016.419" transform="translate(66.544 -0.738)" fill="#72b73a"></path></g><g transform="translate(209.574 11.401)"><path d="M-95.149,36h-8.122c-.262-.318-.137-.686-.137-1.021q-.014-9.2-.01-18.39c0-.481,0-.964-.05-1.442a4.155,4.155,0,0,0-3.5-4.044c-3.237-.7-5.818.308-7.43,3.068a6.971,6.971,0,0,0-.866,3.6q.01,8.568,0,17.138a2.6,2.6,0,0,1-.079,1.074H-123.5V4.318h7.009c.222,1.389.441,2.762.662,4.141.523-.065.652-.441.87-.693a12.648,12.648,0,0,1,13.99-3.47c3.244,1.119,4.977,3.582,5.6,6.883a19.21,19.21,0,0,1,.313,3.535q0,10.062,0,20.123A3.283,3.283,0,0,1-95.149,36" transform="translate(123.5 -3.509)" fill="#1c3761"></path></g><g transform="translate(109.812 11.4)"><path d="M0,33.656V1.974H7.065q.308,2.06.62,4.127c.52.014.653-.377.869-.62a12.023,12.023,0,0,1,5.269-3.6,13.225,13.225,0,0,1,8.886.146,8.222,8.222,0,0,1,5.342,6.22,16.878,16.878,0,0,1,.432,3.911q0,10.4,0,20.8a.977.977,0,0,1-.115.692H20.239a2.825,2.825,0,0,1-.075-1.084q-.009-9.15,0-18.3a9.663,9.663,0,0,0-.187-2.1A4.091,4.091,0,0,0,16.682,8.8c-3.882-.888-6.543.824-7.833,3.637a8.675,8.675,0,0,0-.605,3.673c-.011,5.489,0,10.979-.01,16.468a2.239,2.239,0,0,1-.1,1.078Z" transform="translate(0 -1.185)" fill="#1c3761"></path></g><g transform="translate(14.34 11.436)"><path d="M-27.652,33.78h-8.239V2.12h7.034c.211,1.371.425,2.747.636,4.114.49-.012.616-.358.816-.586A12.155,12.155,0,0,1-16.65,1.394a11.465,11.465,0,0,1,4.52,1.233A8.429,8.429,0,0,1-7.78,8.774,18.526,18.526,0,0,1-7.4,12.4q.013,10.4,0,20.8v.542h-8.25a2.168,2.168,0,0,1-.076-1q-.009-9.1,0-18.2a10.861,10.861,0,0,0-.232-2.292,4.07,4.07,0,0,0-3.4-3.375c-3.184-.649-5.712.262-7.376,3.011a6.105,6.105,0,0,0-.887,3.112c-.029,1.99-.027,3.98-.029,5.971q0,6.019,0,12.038Z" transform="translate(35.892 -1.336)" fill="#1c3761"></path></g><g transform="translate(44.375 12.19)"><path d="M-29.184-137.948c2.681,7.611,5.861,15.075,7.633,23.048a15.131,15.131,0,0,0,1.014-3.211c.34-1.135.585-2.3.923-3.435.328-1.1.711-2.192,1.087-3.282s.773-2.173,1.162-3.259.778-2.17,1.168-3.256q.6-1.673,1.2-3.346c.389-1.083.78-2.165,1.18-3.274h8.447c-3.969,10.587-7.917,21.121-11.878,31.685h-8.819q-5.874-15.745-11.816-31.671Z" transform="translate(37.879 137.963)" fill="#1c3761"></path></g><g transform="translate(140.642 3.308)"><path d="M0-135.126H3.933c.464-2.954.924-5.883,1.388-8.832h6.755v8.827h5.4v6.836H12.265a.953.953,0,0,0-.184.812q-.009,7.6,0,15.208c0,.161,0,.321.008.481a2.165,2.165,0,0,0,2.371,2.321c.739.017,1.48,0,2.219.008a1.442,1.442,0,0,1,.806.1v5.79c-3.16.972-6.342,1.5-9.563.188a6.291,6.291,0,0,1-3.355-3.534,11.339,11.339,0,0,1-.816-4.7q.01-7.748,0-15.5a2.535,2.535,0,0,0-.093-1.1c-1.181-.15-2.4.022-3.653-.095Z" transform="translate(0 143.958)" fill="#1c3761"></path></g><g transform="translate(0.376 2.52)"><path d="M0-179.257c.038-.088.079-.168.2-.168H8.635v41.357H.2v-40.9c.683-.2,1.262.015,1.8-.288Z" transform="translate(0 179.425)" fill="#1c3761"></path></g><g transform="translate(283.696 12.544)"><rect width="8.202" height="31.625" fill="#72b73a"></rect></g><g transform="translate(170.232 43.89) rotate(180)"><path d="M.114,0H8.163c.207.671.28,30.219.077,31.681H.194C0,31.017-.086,1.86.114,0" transform="translate(0 0)" fill="#1c3761"></path></g><g transform="translate(283.697 0.657)"><rect width="8.188" height="7.408" fill="#72b73a"></rect></g><g transform="translate(161.896 0.364)"><path d="M-.3-32.633l8.148.007c.139,2.434.011,4.869.073,7.431-2.777.054-5.486.03-8.116.013a.7.7,0,0,1-.19-.625q0-3.036,0-6.069A1.672,1.672,0,0,1-.3-32.633" transform="translate(0.394 32.633)" fill="#1c3761"></path></g><g transform="translate(48.085 55.918)"><path d="M-33.687,8.661a2.549,2.549,0,0,1-1.163.05V7.152c0-1.22-.007-2.437,0-3.656,0-.62-.125-1.162-.776-1.4a1.591,1.591,0,0,0-1.768.4A2.867,2.867,0,0,0-38.1,4.616c-.031,1.025,0,2.053-.011,3.078a2.111,2.111,0,0,1-.1.994,2.289,2.289,0,0,1-1.1,0V5.906c0-.737.007-1.475,0-2.212-.011-1.086-.311-1.561-1.045-1.683a1.919,1.919,0,0,0-2,1.178A3.338,3.338,0,0,0-42.568,4.5c.016,1.374.006,2.746.006,4.142a2.106,2.106,0,0,1-1.163.049V1.158c.179-.2.462-.088.63-.067.461.211.194.665.48.865,2.053-1.413,3.077-1.41,4.322.031a5.332,5.332,0,0,1,2.006-1c1.652-.187,2.61.356,2.726,1.98a43.923,43.923,0,0,1-.007,5.474c0,.056-.059.111-.121.219" transform="translate(43.725 -0.901)" fill="#acacac"></path></g><g transform="translate(131.921 53.173)"><path d="M-17.3-10.58c0-.416.02-.833-.009-1.247a2.407,2.407,0,0,0-.179-.643A1.578,1.578,0,0,0-19.185-13.6a1.645,1.645,0,0,0-1.783,1.14,5.249,5.249,0,0,0-.113,3.37,1.9,1.9,0,0,0,1.825,1.419,1.9,1.9,0,0,0,1.872-1.486A4.967,4.967,0,0,0-17.3-10.58m-4.092,2.824c-.231.213-.032.558-.261.835-.21.165-.482.033-.8.034V-17.313a1.513,1.513,0,0,1,1.077-.066c.157,1.169-.006,2.349.1,3.618a4.929,4.929,0,0,1,1.919-.873,2.79,2.79,0,0,1,3.21,2.044A7.81,7.81,0,0,1-16.1-8.984a2.607,2.607,0,0,1-1.98,2.216A2.8,2.8,0,0,1-21.2-7.682c-.031-.04-.11-.043-.2-.074" transform="translate(22.458 17.444)" fill="#acacac"></path></g><g transform="translate(140.126 55.941)"><path d="M-18.911-19.059c-.3-1.727-1.085-2.322-2.615-2.026A1.767,1.767,0,0,0-23-18.877a10.563,10.563,0,0,0,4.086-.182M-17.6-17.79h-5.455c-.146,1.3.31,2.295,1.26,2.416,1.6.2,2.437.3,3.066-1.471a2.414,2.414,0,0,1,1.163.061,2.572,2.572,0,0,1-1.422,2.209c-1.266.678-3.835.605-4.791-.7a2.524,2.524,0,0,1-.446-.733,7.067,7.067,0,0,1,.042-4.329,2.511,2.511,0,0,1,1.773-1.608A5.048,5.048,0,0,1-19.6-22a2.313,2.313,0,0,1,1.631,1.379A5.442,5.442,0,0,1-17.6-17.79" transform="translate(24.546 22.176)" fill="#828282"></path></g><g transform="translate(158.092 55.973)"><path d="M-19.007-17.53c-.327-1.9-1.1-2.491-2.638-2.2a1.8,1.8,0,0,0-1.473,2.265c1.336-.027,2.688.078,4.111-.066m.094,2.061a2.721,2.721,0,0,1,1.17,0c-.029,1.824-1.222,2.327-2.466,2.613a4.81,4.81,0,0,1-1.724,0,2.82,2.82,0,0,1-2.519-2.289,6.669,6.669,0,0,1,.031-3.5,2.811,2.811,0,0,1,2.565-2.1,6.476,6.476,0,0,1,1.694.016A2.539,2.539,0,0,1-17.9-18.8a4.951,4.951,0,0,1,.165,2.282h-5.373A2,2,0,0,0-21.9-13.982c1.513.4,2.621-.134,2.983-1.487" transform="translate(24.67 20.79)" fill="#828282"></path></g><g transform="translate(208.915 55.971)"><path d="M-19.048-18.218c-.161-1.553-.737-2.145-2.073-2.124-1.376.023-1.983.649-2.08,2.148a13.744,13.744,0,0,0,4.153-.024m1.3,1.154H-23.22c-.077,1.348.483,2.269,1.471,2.5,1.519.353,2.242-.012,2.939-1.5a2.668,2.668,0,0,1,.922-.04,2.045,2.045,0,0,1-1.419,2.386,4.808,4.808,0,0,1-3.1.143,2.855,2.855,0,0,1-2.05-2.085,5.987,5.987,0,0,1,.014-3.586,2.827,2.827,0,0,1,2.5-2.078,7.046,7.046,0,0,1,1.692-.022,2.81,2.81,0,0,1,2.485,2.621c.054.5.009,1.016.009,1.661" transform="translate(24.724 21.388)" fill="#828282"></path></g><g transform="translate(38.867 55.94)"><path d="M-5.14-18.506h4.053c.2-1.685-.914-2.3-2.2-2.213s-1.905.811-1.858,2.213M.437-17.437h-5.7c.05,1.694.574,2.342,2.029,2.594A2.055,2.055,0,0,0-.847-16.432a2.162,2.162,0,0,1,1.039-.021,1.886,1.886,0,0,1-.7,1.9c-1.333,1.148-4.281,1.045-5.29-.3a2.584,2.584,0,0,1-.422-.638,5.809,5.809,0,0,1,.187-4.9,2.194,2.194,0,0,1,1.194-1.067,5.181,5.181,0,0,1,3.19-.167A2.364,2.364,0,0,1,.057-19.948a14.653,14.653,0,0,1,.38,2.511" transform="translate(6.671 21.796)" fill="#828282"></path></g><g transform="translate(117.993 55.93)"><path d="M-17.243-11.753a7.994,7.994,0,0,0-2.573.159,1.463,1.463,0,0,0-.906.5,1.048,1.048,0,0,0,.355,1.728,2.27,2.27,0,0,0,2.262-.287,1.984,1.984,0,0,0,.862-2.1m-3.521-2.041a2.622,2.622,0,0,1-1.091,0,1.561,1.561,0,0,1,.934-1.933,4.886,4.886,0,0,1,3.445-.263,2.178,2.178,0,0,1,1.492,2.023c-.06,1.216-.017,2.435-.012,3.654,0,.975.06,1.036,1.037,1.189a.716.716,0,0,1,.056.635c-1.031.543-1.416.421-2.379-.766a3.32,3.32,0,0,1-3.591.933,1.871,1.871,0,0,1-1.5-1.767,2.085,2.085,0,0,1,1.081-2.094,5.41,5.41,0,0,1,2.488-.61,5.513,5.513,0,0,0,1.484-.109c.249-1.246-.11-1.973-1.024-2.175a1.785,1.785,0,0,0-2.421,1.28" transform="translate(22.381 16.18)" fill="#828282"></path></g><g transform="translate(30.733 53.17)"><path d="M-3.477,10.5a2.623,2.623,0,0,1-1.036,0V.089c.308-.218.654-.118,1.08-.08v3.76a4.549,4.549,0,0,1,2.014-.975c1.825-.231,2.9.459,3.007,2.275.109,1.781.024,3.574.024,5.4a2.9,2.9,0,0,1-1.167.048c-.236-.231-.152-.5-.154-.748C.284,8.326.258,6.883.3,5.442A1.44,1.44,0,0,0-.59,3.9,1.874,1.874,0,0,0-2.5,4.18a2.52,2.52,0,0,0-.87,2.046c-.011,1.09,0,2.179-.007,3.269a2.094,2.094,0,0,1-.1,1" transform="translate(4.513 0.047)" fill="#acadad"></path></g><g transform="translate(13.525 55.956)"><path d="M-19.419-13.2a4.947,4.947,0,0,0-.175-1.612,1.858,1.858,0,0,0-1.919-1.407,1.9,1.9,0,0,0-2.141,1.379,6.48,6.48,0,0,0-.2,2c.072,1.843.817,2.52,2.646,2.428A1.642,1.642,0,0,0-19.63-11.6a3.915,3.915,0,0,0,.21-1.605m1.34-.059a5.277,5.277,0,0,1-.577,2.572,2.716,2.716,0,0,1-1.465,1.168,4.535,4.535,0,0,1-2.826.058,2.861,2.861,0,0,1-2.048-2.2A6.76,6.76,0,0,1-25-14.975a3.011,3.011,0,0,1,2.479-2.234,4.922,4.922,0,0,1,2.342.137c1.476.5,1.952,1.726,2.1,3.136a6.566,6.566,0,0,1,0,.672" transform="translate(25.205 17.287)" fill="#acadad"></path></g><g transform="translate(99.252 55.952)"><path d="M-4.581-14.249h-.007a5.741,5.741,0,0,0,.008.96c.209,1.215.6,2.093,2.179,1.991.1-.007.193,0,.29,0a1.541,1.541,0,0,0,1.7-1.247,5.338,5.338,0,0,0,0-3.3A1.621,1.621,0,0,0-1.5-16.979c-1.463-.414-2.786.036-3.074,1.771a5.942,5.942,0,0,0-.008.959m-1.353.142a4.29,4.29,0,0,1,1-3.184,3.7,3.7,0,0,1,2.821-.876,3.761,3.761,0,0,1,1.127.185,2.588,2.588,0,0,1,1.727,1.56,6.028,6.028,0,0,1,.089,4.29A2.855,2.855,0,0,1-1.5-10.217a4.671,4.671,0,0,1-2.461-.2A3.157,3.157,0,0,1-5.929-13.34a5.875,5.875,0,0,1,0-.768" transform="translate(5.946 18.169)" fill="#acadad"></path></g><g transform="translate(195.219 56.062)"><path d="M-16.663-33.781a1.908,1.908,0,0,1,1.176-.077v7.519a.9.9,0,0,1-.81.071,1.56,1.56,0,0,1-.319-.977,3.3,3.3,0,0,1-2.968,1.215,1.978,1.978,0,0,1-2-1.834c-.08-1.976-.023-3.958-.023-5.991a2.007,2.007,0,0,1,1.115.028c.262.254.194.524.2.774,0,1.41,0,2.821,0,4.232,0,.608-.084,1.314.652,1.546a2.129,2.129,0,0,0,2.253-.373,1.874,1.874,0,0,0,.615-1.453c-.011-1.219,0-2.436.008-3.655a2.278,2.278,0,0,1,.1-1.025" transform="translate(21.628 33.918)" fill="#acadad"></path></g><g transform="translate(181.897 56.062)"><path d="M-20.515,6.556a1.516,1.516,0,0,1-.737.052c-.269-.2-.159-.6-.449-.88a3.364,3.364,0,0,1-2.884,1.087,1.985,1.985,0,0,1-2-1.835c-.08-1.976-.023-3.956-.023-5.985a1.954,1.954,0,0,1,1.115.022c.263.251.194.521.2.77.006,1.409.018,2.82,0,4.23-.01.638,0,1.3.676,1.552a2.118,2.118,0,0,0,1.945-.147,1.807,1.807,0,0,0,.9-1.6c-.011-1.282,0-2.563.009-3.846a1.7,1.7,0,0,1,.09-.865c.319-.3.711-.155,1.081-.148a48.719,48.719,0,0,1,.086,7.591" transform="translate(26.628 1.076)" fill="#acadad"></path></g><g transform="translate(64.097 55.939)"><path d="M-19.923-23.485a2.24,2.24,0,0,1-.9.052c-.163-.051-.2-.178-.26-.289a1.867,1.867,0,0,0-2.587-.878.964.964,0,0,0-.652.862c-.025.486.286.7.657.833.478.177.97.322,1.463.451a6.026,6.026,0,0,1,1.524.561,2.051,2.051,0,0,1,.14,3.508,4.173,4.173,0,0,1-4.748-.289,1.544,1.544,0,0,1-.524-1.547c.3-.213.626-.094.913-.109.2.064.231.234.3.372a2.236,2.236,0,0,0,3.2.769,1.021,1.021,0,0,0,.043-1.581,3.761,3.761,0,0,0-1.668-.678,11.186,11.186,0,0,1-1.184-.374c-1.094-.47-1.5-1.04-1.451-2.006a2.028,2.028,0,0,1,1.617-1.809,4.506,4.506,0,0,1,2.989.121,1.845,1.845,0,0,1,1.131,2.029" transform="translate(25.859 25.831)" fill="#828282"></path></g><g transform="translate(81.875 56.065)"><path d="M-.274-45.412a1.712,1.712,0,0,1,1.164.059c.721,1.958,1.456,3.951,2.261,6.135.682-2.145,1.319-4.144,1.938-6.087A1.2,1.2,0,0,1,6.3-45.337a7.714,7.714,0,0,1-.565,1.891C5.078-41.516,4.387-39.6,3.7-37.679a6.807,6.807,0,0,1-.434.959A2.593,2.593,0,0,1,.185-35.156c-.251-.229-.172-.509-.117-.769a.425.425,0,0,1,.36-.138,1.74,1.74,0,0,0,1.68-2.623C1.31-40.7.533-42.723-.256-44.743a.686.686,0,0,1-.018-.67" transform="translate(0.356 45.487)" fill="#acadad"></path></g><g transform="translate(22.206 55.952)"><path d="M-21.333-19.369a1.868,1.868,0,0,1-.979.071c-.251-.141-.24-.408-.263-.6a1.275,1.275,0,0,0-1.007-1.25,2.092,2.092,0,0,0-2.059.465,2.9,2.9,0,0,0-.666,1.854,5.153,5.153,0,0,0,.142,2,1.952,1.952,0,0,0,1.906,1.56c1.071-.035,1.621-.568,1.79-1.733.01-.063.028-.124.048-.211a1.385,1.385,0,0,1,.987-.071,2.359,2.359,0,0,1-2.045,2.98,4.464,4.464,0,0,1-2.188-.148A2.514,2.514,0,0,1-27.278-16a6.5,6.5,0,0,1-.139-4.135,2.619,2.619,0,0,1,2.375-2.058,4.705,4.705,0,0,1,1.5-.027c1.673.353,2.279,1.059,2.206,2.848" transform="translate(27.689 22.272)" fill="#acadad"></path></g><g transform="translate(176.321 53.149)"><path d="M-4-23.811c-.433-.2-.747-.055-1.007-.223a.752.752,0,0,1-.115-.821c.309-.341.682-.127,1.015-.314.18-.472.046-1.024.2-1.552.3-1,.562-1.27,1.605-1.269a2.1,2.1,0,0,1,.888.083c.332.272.228.545.2.807-1.553.239-1.642.366-1.38,1.941.4.227.9-.072,1.3.231a1.035,1.035,0,0,1,.021.947l-1.412.074v6.457A3.529,3.529,0,0,1-4-17.431Z" transform="translate(5.194 27.996)" fill="#acadad"></path></g><g transform="translate(71.645 53.935)"><path d="M-7.748-33.821l1.111.1a.7.7,0,0,1,.073.962c-.338.227-.716.032-1.182.232.018,1.73-.055,3.529.046,5.205.368.439.789.191,1.124.415.212.164.157.421.135.679a.984.984,0,0,1-.23.174c-1.406.509-2.37-.12-2.4-1.593-.026-1.183,0-2.369,0-3.553v-1.2c-.188-.378-.576-.137-.847-.406a.683.683,0,0,1-.018-.78c.244-.288.6-.094.877-.321.4-.535-.075-1.315.481-1.933a1.022,1.022,0,0,1,.838.055Z" transform="translate(10.057 35.902)" fill="#adadad"></path></g><g transform="translate(189.834 53.942)"><path d="M-3.235-26.683c-.325-.217-.631-.065-.838-.305a.74.74,0,0,1-.034-.77c.225-.295.574-.131.836-.279.465-.582-.048-1.425.529-1.991A1.048,1.048,0,0,1-1.969-30c.188.624-.044,1.31.125,1.925.366.219.751.014,1.1.209a.686.686,0,0,1,.027.922c-.337.218-.716.026-1.045.168a23.06,23.06,0,0,0,.029,5.4c.275.3.7.037,1.015.281a.638.638,0,0,1,.1.708.968.968,0,0,1-.225.152c-1.425.478-2.356-.156-2.38-1.645-.022-1.284,0-2.568,0-3.853Z" transform="translate(4.199 30.088)" fill="#adadad"></path></g><g transform="translate(94.208 53.139)"><path d="M-7.908-23.378v6.355a2.391,2.391,0,0,1-1.188.033v-6.337c-.388-.276-.742-.078-1.065-.261-.189-.269-.059-.585-.07-.868.307-.319.724-.039,1.071-.3.213-.835-.288-1.937.738-2.581A2.9,2.9,0,0,1-6.668-27.5a.755.755,0,0,1,.249.85c-1.507.248-1.6.376-1.393,1.924.386.257.891-.062,1.3.242a.932.932,0,0,1,.058.887c-.423.226-.9-.013-1.459.219" transform="translate(10.264 27.56)" fill="#828282"></path></g><g transform="translate(153.12 53.947)"><path d="M-11.389-27.312l-1.219.078a41.324,41.324,0,0,0,.117,5.5l.925.122c.332.2.263.467.256.734-.069.057-.129.143-.21.173a1.534,1.534,0,0,1-2.3-1.555c-.007-1.626,0-3.253,0-4.811-.275-.321-.621-.118-.869-.289a1.656,1.656,0,0,1-.063-.876c.267-.287.616-.062.891-.3a13.98,13.98,0,0,0,.271-1.814c.253-.289.545-.139.847-.166.269.66,0,1.351.181,1.994.355.241.769.02,1.165.191a1.215,1.215,0,0,1,.01,1.019" transform="translate(14.782 30.531)" fill="#acadad"></path></g><g transform="translate(148.485 53.945)"><path d="M-3.241-26.718l-.834-.11a1.253,1.253,0,0,1-.082-.927c.229-.271.574-.058.837-.241a6.7,6.7,0,0,0,.326-1.92.968.968,0,0,1,.935,0v1.857c.421.256.832.063,1.233.209a1.359,1.359,0,0,1,.065.958c-.4.209-.807.011-1.161.169a15.635,15.635,0,0,0,.183,5.508l.769.1c.32.213.253.476.231.727A1.557,1.557,0,0,1-3-20.7a2,2,0,0,1-.242-1.109c.01-1.6,0-3.206,0-4.909" transform="translate(4.206 30.034)" fill="#acadad"></path></g><g transform="translate(108.41 55.931)"><path d="M-4.263,7.951a3.216,3.216,0,0,1-1.27.021V.534a1.154,1.154,0,0,1,.886-.1c.293.243.11.61.245.926.379-.337.6-.863,1.1-1.017A1.478,1.478,0,0,1-1.831.427a1.7,1.7,0,0,1,.015.919c-.253.226-.6.186-.893.262C-3.9,1.914-4.244,2.3-4.259,3.534s0,2.495,0,3.742Z" transform="translate(5.533 -0.186)" fill="#adaeae"></path></g><g transform="translate(77.118 55.945)"><path d="M-12.539-32.307v.959c-.387.087-.756.164-1.12.252a1.519,1.519,0,0,0-1.329,1.618C-15.011-28.07-15-26.663-15-25.255c0,.126-.018.252-.031.406a1.969,1.969,0,0,1-1.245.082v-7.445a.711.711,0,0,1,.886-.1c.295.269.117.633.249.924,1.1-1.234,1.46-1.364,2.6-.916" transform="translate(16.275 32.543)" fill="#adadae"></path></g><g transform="translate(203.992 55.911)"><path d="M-3.871,8.256a3.847,3.847,0,0,1-1.154.037V.727c.225-.174.48-.1.744-.074.25.264.232.64.389.986C-3.532,1.3-3.3.781-2.819.65c.426-.117.916-.4,1.356.073a2.913,2.913,0,0,1,.038.952c-.3.089-.569.183-.843.246-1.132.262-1.485.688-1.5,1.862-.01,1.219,0,2.436-.006,3.655a1.535,1.535,0,0,1-.1.818" transform="translate(5.025 -0.459)" fill="#adadad"></path></g><g transform="translate(167.267 55.955)"><path d="M-3.332,7.96a1.73,1.73,0,0,1-.993-.06V.449c.244-.242.509-.123.721-.064.33.295.129.661.3.975.487-.209.551-.861,1.1-1.014A1.541,1.541,0,0,1-.744.405a1.838,1.838,0,0,1,.006.9c-.173.24-.429.157-.635.2-1.612.31-1.746,1.143-1.8,2.282-.058,1.213-.012,2.431-.015,3.647a.686.686,0,0,1-.143.531" transform="translate(4.325 -0.189)" fill="#acacac"></path></g><g transform="translate(59.686 56.296) rotate(-8.864)"><path d="M1.068,7.656A2.109,2.109,0,0,1,.014,7.508,41.985,41.985,0,0,1,1.068.114c.366-.238.727-.044,1.169.045Z" transform="translate(0 0)" fill="#afafb0"></path></g><g transform="matrix(-0.99, 0.142, -0.142, -0.99, 12.431, 63.562)"><path d="M1.067,7.66A2.516,2.516,0,0,1,0,7.505L1.067.068A1.568,1.568,0,0,1,2.143.155Z" transform="translate(0 0)" fill="#acacac"></path></g><g transform="translate(0.295 2.688)"><path d="M-.27-179.471h2c-.538.3-1.116.091-1.8.288v40.9a.213.213,0,0,1-.259-.206c-.015-.255-.012-.512-.012-.769q0-19.632,0-39.263a2.387,2.387,0,0,1,.065-.952" transform="translate(0.351 179.471)" fill="#20325b"></path></g><g transform="matrix(0.777, 0.63, -0.63, 0.777, 61.263, 52.699)"><path d="M.836,1.769A1.652,1.652,0,0,1,0,.8C.148.389.488.222.836,0a3.472,3.472,0,0,1,.931,1.083,2.08,2.08,0,0,1-.931.686" transform="translate(0 0)" fill="#afafb0"></path></g><g transform="translate(10.926 55.16) rotate(-142.546)"><path d="M.831,1.782A3.929,3.929,0,0,1,0,.754C.133.354.485.219.831,0L1.66,1.082a1.6,1.6,0,0,1-.828.7" transform="translate(0 0)" fill="#afafaf"></path></g></g></g></svg> 